<?xml version="1.0" encoding="UTF-8" standalone="no"?><!DOCTYPE svg PUBLIC "-//W3C//DTD SVG 1.1//EN" "http://www.w3.org/Graphics/SVG/1.1/DTD/svg11.dtd"><svg width="100%" height="100%" viewBox="0 0 3840 2160" version="1.1" xmlns="http://www.w3.org/2000/svg" xmlns:xlink="http://www.w3.org/1999/xlink" xml:space="preserve" xmlns:serif="http://www.serif.com/" style="fill-rule:evenodd;clip-rule:evenodd;stroke-linecap:round;stroke-linejoin:round;stroke-miterlimit:1.5;"><g id="Temp"></g><g id="Logo"><g id="E"><path id="E1" serif:id="E" d="M246.15,1064.2l645.487,-0" style="fill:none;stroke:#000;stroke-width:166.67px;"/><path d="M1044.56,1233.38c-64.527,148.716 -212.724,252.844 -385.05,252.844c-231.536,0 -419.514,-187.978 -419.514,-419.514c-0,-231.536 187.978,-419.514 419.514,-419.514c172.326,0 320.523,104.129 385.05,252.844" style="fill:none;stroke:#000;stroke-width:166.67px;"/></g><g id="Z"><g id="Z2"><path id="Z1" d="M3023.18,1364.76l573.068,-600.544" style="fill:none;stroke:#000;stroke-width:166.67px;"/><path id="Z11" serif:id="Z1" d="M3593.05,1365.65c-74.684,70.702 -175.489,114.087 -286.347,114.087c-100.067,0 -191.942,-35.35 -263.81,-94.232c-6.735,-5.518 -13.706,-12.268 -20.75,-19.855" style="fill:none;stroke:#000;stroke-width:166.67px;"/><path id="Z12" serif:id="Z1" d="M3016.4,764.236c75.061,-72.939 177.473,-117.877 290.298,-117.877c112.825,-0 215.237,44.938 290.298,117.877" style="fill:none;stroke:#000;stroke-width:166.67px;"/></g><g id="Z13" serif:id="Z1"><path id="Z14" serif:id="Z1" d="M1233.87,1368.95l573.068,-600.544" style="fill:none;stroke:#000;stroke-width:166.67px;"/><path id="Z15" serif:id="Z1" d="M1803.74,1369.83c-74.684,70.703 -175.489,114.088 -286.347,114.088c-100.066,-0 -191.942,-35.35 -263.809,-94.232c-6.735,-5.519 -13.707,-12.268 -20.75,-19.856" style="fill:none;stroke:#000;stroke-width:166.67px;"/><path id="Z16" serif:id="Z1" d="M1227.09,768.418c75.061,-72.938 177.473,-117.876 290.297,-117.876c112.825,-0 215.237,44.938 290.298,117.876" style="fill:none;stroke:#000;stroke-width:166.67px;"/></g></g><path d="M2012,1112.24c-1.323,-12.907 -2,-25.995 -2,-39.236c0,-216.351 180.765,-392 403.417,-392c222.652,0 403.417,175.649 403.417,392c-0,216.351 -180.765,392 -403.417,392c-71.872,0 -139.38,-18.303 -197.848,-50.367l-203.569,183.367l0,-485.764Z" style="fill:#45cbea;"/><g id="P"><path id="P1" serif:id="P" d="M1993.04,1088.67l-0,594.094l248.112,-236.188" style="fill:none;stroke:#000;stroke-width:166.67px;"/><path id="P2" serif:id="P" d="M1993.21,1089.31c-0.467,-8.077 -0.704,-16.216 -0.704,-24.409c-0,-230.075 186.791,-416.866 416.865,-416.866c230.075,-0 416.866,186.791 416.866,416.866c0,230.074 -186.791,416.865 -416.866,416.865c-56.279,0 -109.968,-11.177 -158.967,-31.429" style="fill:none;stroke:#000;stroke-width:166.67px;"/></g></g></svg>